<svg width="144" height="52" viewBox="0 0 144 52" fill="none" xmlns="http://www.w3.org/2000/svg">
<rect width="144" height="52" fill="black"/>
<path d="M23.4333 14H18.8721V31.3932C18.8721 33.4609 18.7201 34.0691 17.7166 34.0691C16.7132 34.0691 16.5612 33.4609 16.5612 31.3932V29.8728H12V31.6973C12 36.5929 14.0373 38.6302 17.7166 38.6302C21.396 38.6302 23.4333 36.5929 23.4333 31.6973V14Z" fill="#F5F4F4"/>
<path d="M35.7935 35.407V24.5819C35.7935 20.2944 34.0907 18.2571 30.1073 18.2571C26.1239 18.2571 24.3602 20.2944 24.3602 24.5819V25.19H28.9214V24.5819C28.9214 23.1223 29.2255 22.5141 30.1073 22.5141C30.9283 22.5141 31.2324 22.8182 31.2324 23.9433C31.202 27.1665 24.0562 26.4976 24.0562 33.4913C24.0562 37.0794 25.8502 38.6302 27.8875 38.6302C29.6208 38.6302 30.533 37.8396 31.2324 36.1064C31.2324 36.6537 31.3844 37.87 32.1446 38.3261H36.0976C35.7935 37.3531 35.7935 36.6841 35.7935 35.407ZM31.2324 33.613C30.9283 33.9778 30.5026 34.3731 29.8944 34.3731C29.1343 34.3731 28.6173 33.8562 28.6173 32.6703C28.6173 30.8154 30.2897 30.2073 31.2324 28.8389V33.613Z" fill="#F5F4F4"/>
<path d="M51.2411 18.2571C49.4471 18.2571 48.1091 19.595 47.5922 20.933C47.2273 19.1389 46.4063 18.2571 44.6731 18.2571C42.8182 18.2571 41.7539 19.6862 41.2674 20.7809V18.5612H36.7062V38.3261H41.2674V24.2778C41.2674 22.8182 41.6627 22.5141 42.2708 22.5141C42.879 22.5141 43.2743 22.8182 43.2743 24.2778V38.3261H47.8355V24.5819V24.2778C47.8355 22.8182 48.2308 22.5141 48.8389 22.5141C49.4471 22.5141 49.8424 22.8182 49.8424 24.2778V38.3261H54.4035V24.5819C54.4035 20.2944 53.8866 18.2571 51.2411 18.2571Z" fill="#F5F4F4"/>
<path d="M62.6307 26.8016C60.2589 25.0684 59.5595 24.7035 59.5595 23.6696C59.5595 23.1223 59.8028 22.5141 60.5022 22.5141C61.2015 22.5141 61.5664 23.1223 61.5664 24.8859H66.1276C66.1276 20.5985 64.3335 18.2571 60.5022 18.2571C56.6708 18.2571 54.9984 20.5985 54.9984 23.6696C54.9984 26.8929 56.914 28.1396 58.7993 29.4471C61.5664 31.3628 61.8705 32.0013 61.8705 32.9136C61.8705 33.765 61.6881 34.3731 60.8366 34.3731C59.9852 34.3731 59.5595 33.765 59.5595 31.3932H54.9984C54.9984 36.897 56.8532 38.6302 60.8366 38.6302C64.82 38.6302 66.4317 36.2888 66.4317 32.9136C66.4317 29.8424 64.9417 28.5045 62.6307 26.8016Z" fill="#F5F4F4"/>
<path d="M67.0545 31.6973C67.0545 36.5929 69.0918 38.6302 72.7712 38.6302C76.4505 38.6302 78.4878 36.5929 78.4878 31.6973V25.19C78.4878 20.2944 76.4505 18.2571 72.7712 18.2571C69.0918 18.2571 67.0545 20.2944 67.0545 25.19V31.6973ZM71.6157 31.6973V25.19C71.6157 23.1223 71.7677 22.5141 72.7712 22.5141C73.7442 22.5141 73.9267 23.1223 73.9267 25.19V31.6973C73.9267 33.765 73.7746 34.3731 72.7712 34.3731C71.7677 34.3731 71.6157 33.765 71.6157 31.6973Z" fill="#F5F4F4"/>
<path d="M85.9828 26.3151H90.544V25.19C90.544 20.2944 88.5067 18.2571 84.8273 18.2571C81.148 18.2571 79.1107 20.2944 79.1107 25.19V31.6973C79.1107 36.5929 81.148 38.6302 84.8273 38.6302C88.5067 38.6302 90.544 36.5929 90.544 31.6973V30.5722H85.9828V31.6973C85.9828 33.765 85.8308 34.3731 84.8273 34.3731C83.8239 34.3731 83.6719 33.765 83.6719 31.6973V25.19C83.6719 23.1223 83.8239 22.5141 84.8273 22.5141C85.8004 22.5141 85.9828 23.1223 85.9828 25.19V26.3151Z" fill="#F5F4F4"/>
<path d="M91.1669 14V38.3261H95.728V14H91.1669Z" fill="#F5F4F4"/>
<path d="M124.001 22.8182V18.5612H119.136C120.748 18.1659 121.265 16.0677 121.265 14H116.704C116.734 15.8853 116.369 18.0442 114.575 18.5612V22.8182H116.399V31.6973C116.399 36.5929 117.22 38.3261 121.508 38.3261H124.001V34.0691H122.724C121.569 34.0691 120.961 33.765 120.961 31.6973V22.8182H124.001Z" fill="#F5F4F4"/>
<path fill-rule="evenodd" clip-rule="evenodd" d="M98.525 18.5614H103.238L100.228 28.4439L103.238 38.3264H98.525L95.6971 28.4439L98.525 18.5614ZM113.08 18.5614H112.928H108.366H103.805V23.1226H109.756L110.682 26.1634H103.805V30.7246H110.682L109.756 33.7654H103.805V38.3266H112.928V38.3264H113.08L115.908 28.4439L113.08 18.5614Z" fill="#62B4FF"/>
</svg>
